<svg width="1200" height="420" viewBox="0 0 1200 420" fill="none" xmlns="http://www.w3.org/2000/svg">
  <defs>
    <linearGradient id="bg" x1="0" y1="0" x2="1200" y2="420" gradientUnits="userSpaceOnUse">
      <stop stop-color="#020617"/>
      <stop offset="0.45" stop-color="#111827"/>
      <stop offset="1" stop-color="#042f2e"/>
    </linearGradient>
    <linearGradient id="neon" x1="110" y1="70" x2="1080" y2="350" gradientUnits="userSpaceOnUse">
      <stop stop-color="#38bdf8"/>
      <stop offset="0.45" stop-color="#22c55e"/>
      <stop offset="1" stop-color="#a3e635"/>
    </linearGradient>
    <radialGradient id="glow1" cx="0" cy="0" r="1" gradientUnits="userSpaceOnUse" gradientTransform="translate(980 86) rotate(136) scale(360 230)">
      <stop stop-color="#22c55e" stop-opacity="0.45"/>
      <stop offset="1" stop-color="#22c55e" stop-opacity="0"/>
    </radialGradient>
    <radialGradient id="glow2" cx="0" cy="0" r="1" gradientUnits="userSpaceOnUse" gradientTransform="translate(190 328) rotate(-22) scale(320 200)">
      <stop stop-color="#2563eb" stop-opacity="0.55"/>
      <stop offset="1" stop-color="#2563eb" stop-opacity="0"/>
    </radialGradient>
    <filter id="blur"><feGaussianBlur stdDeviation="18"/></filter>
    <filter id="shadow" x="-20%" y="-20%" width="140%" height="140%">
      <feDropShadow dx="0" dy="16" stdDeviation="18" flood-color="#000000" flood-opacity="0.55"/>
    </filter>
    <pattern id="grid" width="42" height="42" patternUnits="userSpaceOnUse">
      <path d="M 42 0 L 0 0 0 42" fill="none" stroke="#94a3b8" stroke-opacity="0.10" stroke-width="1"/>
    </pattern>
  </defs>

  <rect width="1200" height="420" rx="34" fill="url(#bg)"/>
  <rect width="1200" height="420" rx="34" fill="url(#grid)"/>
  <rect width="1200" height="420" rx="34" fill="url(#glow1)"/>
  <rect width="1200" height="420" rx="34" fill="url(#glow2)"/>

  <g opacity="0.72" filter="url(#blur)">
    <circle cx="1014" cy="86" r="86" fill="#22c55e" opacity="0.32"/>
    <circle cx="175" cy="333" r="92" fill="#2563eb" opacity="0.36"/>
  </g>

  <path d="M53 320 C198 210, 282 418, 432 260 C557 129, 645 156, 760 208 C890 267, 988 201, 1150 103" stroke="url(#neon)" stroke-width="3" opacity="0.8"/>
  <path d="M94 95 L245 95 L287 137 L437 137" stroke="#22c55e" stroke-width="2" opacity="0.75"/>
  <path d="M762 318 L910 318 L952 276 L1105 276" stroke="#38bdf8" stroke-width="2" opacity="0.7"/>

  <g filter="url(#shadow)">
    <rect x="74" y="72" width="1052" height="276" rx="28" fill="#020617" opacity="0.76" stroke="url(#neon)" stroke-opacity="0.55"/>
  </g>

  <g transform="translate(104 112)">
    <rect x="0" y="0" width="165" height="44" rx="22" fill="#0f172a" stroke="#22c55e" stroke-opacity="0.55"/>
    <circle cx="28" cy="22" r="7" fill="#22c55e"/>
    <text x="46" y="28" fill="#d1fae5" font-family="Inter, Segoe UI, Arial, sans-serif" font-size="16" font-weight="700">OPEN TO BUILD</text>
  </g>

  <text x="104" y="204" fill="#ffffff" font-family="Inter, Segoe UI, Arial, sans-serif" font-size="62" font-weight="900" letter-spacing="-1.5">Veer Pratap</text>
  <text x="106" y="250" fill="#a7f3d0" font-family="Fira Code, Consolas, monospace" font-size="26" font-weight="700">Full-Stack Learner • AI-Assisted Developer • Digital Creator</text>
  <text x="108" y="294" fill="#cbd5e1" font-family="Inter, Segoe UI, Arial, sans-serif" font-size="21" font-weight="500">Building Obstacle Developer with React, Vite, Express, Prisma & PostgreSQL</text>

  <g transform="translate(846 108)">
    <rect x="0" y="0" width="230" height="190" rx="22" fill="#07111f" stroke="#334155"/>
    <rect x="18" y="18" width="194" height="24" rx="12" fill="#111827"/>
    <circle cx="35" cy="30" r="5" fill="#ef4444"/>
    <circle cx="52" cy="30" r="5" fill="#f59e0b"/>
    <circle cx="69" cy="30" r="5" fill="#22c55e"/>
    <text x="24" y="76" fill="#38bdf8" font-family="Fira Code, Consolas, monospace" font-size="16">&gt; npm run dev</text>
    <text x="24" y="112" fill="#22c55e" font-family="Fira Code, Consolas, monospace" font-size="16">✔ server ready</text>
    <text x="24" y="148" fill="#a3e635" font-family="Fira Code, Consolas, monospace" font-size="16">⚡ building...</text>
  </g>

  <g opacity="0.9">
    <circle cx="100" cy="370" r="3" fill="#22c55e"/>
    <circle cx="152" cy="374" r="2" fill="#38bdf8"/>
    <circle cx="1114" cy="58" r="3" fill="#a3e635"/>
    <circle cx="1160" cy="92" r="2" fill="#38bdf8"/>
    <circle cx="690" cy="64" r="2" fill="#22c55e"/>
  </g>
</svg>
